<?xml version="1.0" encoding="utf-8"?>
<!-- Generator: Adobe Illustrator 22.0.0, SVG Export Plug-In . SVG Version: 6.00 Build 0)  -->
<svg version="1.1" id="Capa_1" xmlns="http://www.w3.org/2000/svg" xmlns:xlink="http://www.w3.org/1999/xlink" x="0px" y="0px"
	 viewBox="0 0 300 70" style="enable-background:new 0 0 300 70;" xml:space="preserve">
<style type="text/css">
	.st0{fill:url(#SVGID_1_);}
	.st1{opacity:0.12;}
	.st2{opacity:0.84;fill:#FFFFFF;}
</style>
<g>
	<linearGradient id="SVGID_1_" gradientUnits="userSpaceOnUse" x1="67.8751" y1="118.233" x2="241.4633" y2="-55.3553">
		<stop  offset="0" style="stop-color:#00B09B"/>
		<stop  offset="0.9996" style="stop-color:#96C93D"/>
	</linearGradient>
	<path class="st0" d="M153.7,11h8v48.4l-32-30.2v29.8h-8V10.6l32,30.2V11z M108.8,58.9h8V11h-8V58.9z M103.8,27.9
		c0-9.4-7.6-17-17-17h-7h-4h-4v48h8v-14h6.7l8.1,14h9.2L94.6,43C100,40.2,103.8,34.5,103.8,27.9z M86.8,36.9h-7V19h7c5,0,9,4,9,9
		S91.7,36.9,86.8,36.9z M50.8,11h-7h-4h-4v48h8v-14h7c9.4,0,17-7.6,17-17S60.2,11,50.8,11z M50.8,36.9h-7V19h7c5,0,9,4,9,9
		S55.8,36.9,50.8,36.9z M191.7,32.9v8h12.8c-2.4,5.9-8.1,10-14.8,10c-8.8,0-16-7.2-16-16s7.2-16,16-16c5,0,9.6,2.3,12.7,6.3l6.3-4.9
		c-4.6-6-11.5-9.4-19-9.4c-13.2,0-24,10.8-24,24s10.8,24,24,24c12.4,0,22.6-9.3,23.9-21.6l0.4-4.4H191.7z M18.6,31.1
		c-6.8-2.4-7.7-4.5-7.7-6.2c0-3.3,3.1-6,7-6c2.6,0,4.9,1.2,6.2,3.1l6.7-4.3c-2.7-4.2-7.6-6.8-12.9-6.8c-8.3,0-15,6.3-15,14
		c0,9.4,9.9,12.7,13.2,13.8c4.7,1.6,7.8,4.4,7.8,7.2c0,4.5-4.9,5-7,5c-5,0-8.4-2.6-9.1-5L0,48c1.7,6.4,8.6,10.9,16.8,10.9
		c10.4,0,15-6.5,15-13C31.8,39.5,26.7,34.1,18.6,31.1z M297.9,1.1c0,0-45.3-5.6-59.3,8.5c-14,14-8.5,59.3-8.5,59.3
		s45.3,5.6,59.3-8.5S297.9,1.1,297.9,1.1z"/>
	<path class="st1" d="M289.4,60.4c-14,14-59.3,8.5-59.3,8.5l67.8-67.8C297.9,1.1,303.5,46.4,289.4,60.4z"/>
	<path class="st2" d="M274.6,24.4L279,20c4.8,3.2,8,8.7,8,15c0,9.9-8.1,18-18,18c-6.3,0-11.8-3.2-15-8l4.4-4.4c2,3.8,6,6.4,10.6,6.4
		c6.6,0,12-5.4,12-12C281,30.4,278.4,26.4,274.6,24.4z M251,17h-6v37l6-6V17z"/>
</g>
</svg>
